<svg xmlns="http://www.w3.org/2000/svg" viewBox="0 0 500 500"><g id="freepik--background-simple--inject-244"><path d="M425.52,104l-2.15-3.54c-18.08-29.8-50.79-47.77-85.27-45.59a90.35,90.35,0,0,0-13.19,1.81C293.56,63.4,266.28,87.11,255,117.47c-6.65,17.85-8.5,38.41-21.12,52.59-16.42,18.44-44.31,19-68.82,18.26s-52.41-.12-68.75,18.4C86,218.32,82.79,234.81,83.61,250.34c2.19,41.12,30.84,77.89,67.28,96.17s79.35,19.91,119.23,11.87c55.87-11.26,109-42.19,140.93-90S451.07,155.57,425.52,104Z" style="fill:#f5f5f5"></path><circle cx="414.53" cy="356.18" r="27.87" transform="translate(-130.44 397.44) rotate(-45)" style="fill:#f5f5f5"></circle><circle cx="115.47" cy="76.82" r="27.87" transform="translate(-20.79 51.01) rotate(-22.91)" style="fill:#f5f5f5"></circle></g><g id="freepik--Table--inject-244"><path d="M480.46,417.23c0,.14-103.19.26-230.45.26s-230.47-.12-230.47-.26S122.7,417,250,417,480.46,417.08,480.46,417.23Z" style="fill:#263238"></path></g><g id="freepik--speech-bubble--inject-244"><circle cx="114.37" cy="165.38" r="36.36" transform="translate(-60.92 263.9) rotate(-84.67)" style="fill:#fff"></circle><path d="M154.64,178.23s-.25.31-.57.93a4.9,4.9,0,0,0-.43,2.87,4.5,4.5,0,0,0,.71,1.86,4,4,0,0,0,1.76,1.43,4.36,4.36,0,0,0,5.86-5.7,4,4,0,0,0-1.38-1.79,4.6,4.6,0,0,0-1.85-.77,4.9,4.9,0,0,0-2.87.35c-.64.3-.92.58-1,.55a.92.92,0,0,1,.21-.2,1.33,1.33,0,0,1,.27-.22,2.22,2.22,0,0,1,.41-.24,4.74,4.74,0,0,1,3-.48,4.87,4.87,0,0,1,2,.78,4.21,4.21,0,0,1,1.51,1.91,5,5,0,0,1,.29,2.66,4.38,4.38,0,0,1-3.9,3.8,4.93,4.93,0,0,1-2.66-.36,4.26,4.26,0,0,1-1.87-1.56,4.91,4.91,0,0,1-.72-2,4.77,4.77,0,0,1,.55-3,4,4,0,0,1,.26-.4c.08-.11.16-.2.22-.27A1.81,1.81,0,0,1,154.64,178.23Z" style="fill:#263238"></path><path d="M143.91,143.64s-.14-.15-.39-.45l-1.12-1.34-.81-1c-.32-.35-.7-.7-1.1-1.09s-.82-.82-1.28-1.27a6,6,0,0,0-.74-.67l-.83-.66a34.8,34.8,0,0,0-9-5.43A36.39,36.39,0,0,0,115,128.89h-2c-.66,0-1.33.12-2,.17l-1,.09a7.28,7.28,0,0,0-1,.14l-2.06.39c-.35.07-.7.12-1,.2l-1,.3-2.1.62c-.7.23-1.37.54-2.07.81l-1,.42-.52.22-.5.26a34.68,34.68,0,0,0-4,2.31c-.64.44-1.33.85-2,1.33l-1.87,1.53c-.31.27-.64.51-.94.79l-.87.87c-.57.59-1.18,1.16-1.74,1.78a38.85,38.85,0,0,0-3.07,4l-.71,1.07c-.12.18-.24.36-.35.54l-.31.58-1.22,2.31c-.37.79-.68,1.62-1,2.44-.16.41-.36.81-.49,1.24l-.39,1.28a40.15,40.15,0,0,0-1.24,5.28c-.1.91-.19,1.83-.29,2.75l-.07.69c0,.23,0,.46,0,.69v2.8l.12,1.4.13,1.4.06.71c0,.23.09.46.13.7.17.93.35,1.86.53,2.8s.53,1.84.8,2.76A36,36,0,0,0,93.4,195.11l2.4,1.59L98.32,198l.63.33.65.27,1.31.54,1.3.53,1.34.41,1.34.4.66.2.68.14,2.7.54a41.39,41.39,0,0,0,5.42.38h1.34c.45,0,.89-.07,1.33-.09.88-.09,1.77-.14,2.63-.26l2.57-.48.64-.12.63-.18,1.23-.36a37.38,37.38,0,0,0,4.76-1.73c.76-.35,1.48-.76,2.22-1.14l1.09-.57c.35-.19.68-.44,1-.66l2-1.33c.65-.46,1.24-1,1.86-1.48a34.25,34.25,0,0,0,3.4-3.17l.4-.4c.13-.14.24-.29.37-.44l.71-.87c.46-.59,1-1.14,1.39-1.74l1.21-1.82c.2-.3.4-.6.59-.9l.51-.93,1-1.86a6.69,6.69,0,0,0,.44-.94l.39-.94c.25-.63.52-1.25.75-1.87s.39-1.26.58-1.88a36.31,36.31,0,0,0,1.32-13.85c0-.51-.08-1-.13-1.51l-.27-1.44c-.09-.47-.17-.93-.26-1.39,0-.22-.07-.45-.13-.67s-.12-.43-.19-.64c-.24-.85-.48-1.66-.7-2.43s-.57-1.47-.82-2.15l-.4-1a6.29,6.29,0,0,0-.41-.91c-.29-.57-.57-1.11-.83-1.6s-.48-1-.72-1.37l-.7-1.07-.95-1.47-.31-.5.34.48,1,1.45.71,1.07c.25.4.47.87.74,1.36s.55,1,.85,1.6a6.32,6.32,0,0,1,.42.91l.4,1c.26.68.59,1.38.84,2.15l.72,2.44c.06.21.13.43.19.65s.09.44.14.67c.08.45.17.92.26,1.39s.18,1,.28,1.45.09,1,.14,1.52a36.68,36.68,0,0,1-1.28,13.93q-.28.93-.57,1.89c-.23.63-.51,1.25-.76,1.88l-.39,1a8,8,0,0,1-.43.94l-1,1.87c-.17.32-.33.64-.51,1l-.6.91-1.21,1.83c-.43.61-.93,1.16-1.4,1.76l-.71.88c-.13.14-.24.3-.37.44l-.41.41a34.55,34.55,0,0,1-3.41,3.19c-.62.5-1.22,1-1.88,1.5l-2,1.35c-.34.22-.67.46-1,.66l-1.1.58c-.74.38-1.47.79-2.23,1.15a38.61,38.61,0,0,1-4.8,1.75l-1.25.37-.62.18-.65.12-2.59.49c-.88.12-1.77.17-2.66.26-.44,0-.89.1-1.34.09h-1.35a40.29,40.29,0,0,1-5.46-.37l-2.73-.55-.69-.14-.67-.2-1.35-.41-1.35-.4-1.32-.54-1.31-.54-.67-.27-.63-.34L95.62,197l-2.42-1.61a36.4,36.4,0,0,1-13.76-18.69q-.41-1.41-.81-2.79c-.18-1-.36-1.89-.53-2.83,0-.24-.09-.47-.13-.71l-.06-.71-.13-1.42-.12-1.41V164c0-.24,0-.47,0-.7l.07-.7c.1-.93.2-1.85.29-2.77a42.47,42.47,0,0,1,1.26-5.32l.4-1.3c.12-.43.33-.83.49-1.25.35-.82.66-1.66,1-2.46l1.24-2.33.31-.58c.11-.18.24-.36.35-.54l.72-1.09A41.78,41.78,0,0,1,87,140.9c.57-.62,1.18-1.19,1.76-1.79l.88-.87c.3-.29.63-.53.94-.79l1.89-1.54c.64-.49,1.33-.9,2-1.35a34.31,34.31,0,0,1,4.06-2.31L99,132c.17-.08.36-.14.53-.21l1.06-.43c.7-.27,1.38-.58,2.09-.81l2.11-.61,1-.31,1.06-.2L109,129a8.78,8.78,0,0,1,1-.13l1-.09c.69-.05,1.36-.13,2-.16h2a36.6,36.6,0,0,1,13.68,2.91,34.63,34.63,0,0,1,9,5.51l.82.67a6,6,0,0,1,.74.67l1.28,1.29c.39.4.77.75,1.08,1.11s.57.7.81,1l1.09,1.36Z" style="fill:#263238"></path><path d="M104.5,155.23h5.76a4.89,4.89,0,0,1,5-4.92,4.65,4.65,0,0,1,4.51,3,5.16,5.16,0,0,1-.41,4.67c-1,1.61-3.11,3.07-7,2.39v13h5.69v-7.61a11.11,11.11,0,0,0,8-10.86c0-8.42-7.55-10.38-10.79-10.38C112.81,144.47,104.39,145.07,104.5,155.23Z" style="fill:#90CAF9"></path><rect x="112.37" y="175.99" width="5.78" height="5.4" style="fill:#90CAF9"></rect></g><g id="freepik--Sheets--inject-244"><polygon points="244.53 435.19 170.4 434.28 205.71 474.36 294.25 474.36 244.53 435.19" style="fill:#f5f5f5"></polygon><polygon points="256.81 431.22 182.69 430.3 217.99 470.38 306.54 470.38 256.81 431.22" style="fill:#ebebeb"></polygon><polygon points="236.39 424.13 162.27 423.22 197.57 463.3 286.12 463.3 236.39 424.13" style="fill:#ebebeb"></polygon><polygon points="171.92 419.85 171.25 426.92 206.96 466.63 295.14 466.13 295.14 459.93 171.92 419.85" style="fill:#e0e0e0"></polygon><polygon points="246.04 420.76 171.92 419.85 207.22 459.93 295.77 459.93 246.04 420.76" style="fill:#fff"></polygon><path d="M246,420.76l.92.69,2.66,2.05,10.1,7.88,36.18,28.38a.21.21,0,0,1,0,.31.23.23,0,0,1-.17.08l-76.39,0H207.22a.22.22,0,0,1-.19-.09L171.75,420a.22.22,0,0,1,0-.32.22.22,0,0,1,.15-.06l53.69.76,15.1.25,4,.08,1,0,.34,0a2.37,2.37,0,0,1-.35,0h-5l-15.11-.13-53.63-.56.17-.38,35.32,40.06-.19-.09h12.16l76.39,0-.14.39-36-28.49-10-8-2.63-2.12C246.34,421,246,420.76,246,420.76Z" style="fill:#263238"></path><path d="M271,450.34c0,.15-13.55.26-30.26.26s-30.27-.11-30.27-.26,13.55-.26,30.27-.26S271,450.2,271,450.34Z" style="fill:#263238"></path><path d="M265.13,446.66c0,.15-13.55.26-30.26.26s-30.27-.11-30.27-.26,13.55-.26,30.27-.26S265.13,446.52,265.13,446.66Z" style="fill:#263238"></path><path d="M261.93,442.65c0,.14-13.55.26-30.27.26s-30.27-.12-30.27-.26,13.55-.26,30.27-.26S261.93,442.5,261.93,442.65Z" style="fill:#263238"></path><path d="M256.48,438.63c0,.14-13.55.26-30.26.26s-30.27-.12-30.27-.26,13.55-.26,30.27-.26S256.48,438.49,256.48,438.63Z" style="fill:#263238"></path><path d="M252.25,434.28c0,.14-13.55.26-30.26.26s-30.27-.12-30.27-.26S205.27,434,222,434,252.25,434.14,252.25,434.28Z" style="fill:#263238"></path><path d="M207,466.63a12.23,12.23,0,0,1-.22-3.49,11.81,11.81,0,0,1,.31-3.49,24,24,0,0,1-.09,7Z" style="fill:#263238"></path></g><g id="freepik--Character--inject-244"><path d="M122.77,417.23V377a22.43,22.43,0,0,1,22.43-22.42h123A22.43,22.43,0,0,1,290.6,377L290,417.23Z" style="fill:#455a64"></path><path d="M122.77,417.23h-9.11V383.17a4.56,4.56,0,0,1,4.56-4.56h0a4.56,4.56,0,0,1,4.55,4.56Z" style="fill:#e0e0e0"></path><path d="M122.77,417.23s0-.09,0-.26l0-.71c0-.66,0-1.56,0-2.7,0-2.36,0-5.71-.09-9.83s0-9.05-.07-14.49c0-1.37,0-2.76,0-4.19,0-.7,0-1.45,0-2.14a4.23,4.23,0,0,0-.62-2,4.3,4.3,0,0,0-7.29-.09,4.43,4.43,0,0,0-.68,2.53v2.76c0,1.82,0,3.61,0,5.36,0,3.5,0,6.84,0,10,0,6.24-.06,11.63-.08,15.77l-.15-.16,6.67.09,1.8,0,.64,0a3.83,3.83,0,0,1-.58,0l-1.76,0-6.77.08h-.16v-.16c0-4.14,0-9.53-.07-15.77,0-3.13,0-6.47,0-10v-8.12a4.82,4.82,0,0,1,4.95-5,4.81,4.81,0,0,1,4,2.32,4.59,4.59,0,0,1,.69,2.21c0,.76,0,1.47,0,2.19,0,1.44,0,2.85,0,4.23,0,5.49-.05,10.43-.07,14.6s-.07,7.44-.09,9.8c0,1.11,0,2,0,2.63A5.43,5.43,0,0,1,122.77,417.23Z" style="fill:#263238"></path><path d="M299.07,417.23H290V383.17a4.56,4.56,0,0,1,4.55-4.56h0a4.56,4.56,0,0,1,4.56,4.56Z" style="fill:#e0e0e0"></path><path d="M141.68,417.23l2.19-62.7s10.11-8.26,24.49,0l-10.73,62.7Z" style="fill:#263238"></path><path d="M172.87,160.53l.24-53,27.4-5.24L206,153S191.72,176.91,172.87,160.53Z" style="fill:#ffbf9d"></path><path d="M173.14,108.46s-3-3.85-1.09-16.59,4.36-23.55,6.63-26.86l1.57-2.27s1.92-8.37,5.58-14.13,5.76-9.07,8.2-8.37,1.57,2.61.87,4.53-7.1,15.18-6.6,17.1,1.54.35,2.07-1.22,4.88-11.52,10.29-18,6.28-6.63,8.72-6.45,2,2.88,1.08,4.47l-2.8,5.19s7.48-11.31,11.84-9.7-1.4,8.06-1.4,8.06-5.4,7-7.5,10.64-5.41,9.94-5.41,9.94,9.25-9.42,11.69-11.16,8.38-10.12,12.21-6.63-15,20.22-17.61,25.2L208.86,76l-1.92,5.58a12.37,12.37,0,0,1,11-4.36c7.33.7,1.22,5.41-.7,7.15s-6.1,5.93-7.85,9.42-7.88,9.65-10.64,11.27-9.07,3.4-9.07,3.4Z" style="fill:#ffbf9d"></path><path d="M206.91,69.54c-.07.06-.92-.84-2.53-2a20.77,20.77,0,0,0-3-1.79,24.39,24.39,0,0,0-4-1.49,23.93,23.93,0,0,0-4.18-.69,21.45,21.45,0,0,0-3.46.06c-2,.2-3.16.55-3.19.46a2.88,2.88,0,0,1,.82-.32,14.42,14.42,0,0,1,2.32-.51,19.26,19.26,0,0,1,3.53-.17,22.22,22.22,0,0,1,4.29.67,21.25,21.25,0,0,1,4,1.56,19.78,19.78,0,0,1,3,1.92,14.2,14.2,0,0,1,1.75,1.61C206.74,69.27,206.94,69.51,206.91,69.54Z" style="fill:#ff9a6c"></path><path d="M208.31,45c.07,0-.68,1-1.75,2.63a67.91,67.91,0,0,0-3.75,6.62c-1.34,2.67-2.43,5.14-3.23,6.92A19.85,19.85,0,0,1,198.2,64a17.63,17.63,0,0,1,1-3c.72-1.82,1.76-4.33,3.1-7a47.66,47.66,0,0,1,3.92-6.59,23.29,23.29,0,0,1,1.44-1.83C208.07,45.14,208.28,44.92,208.31,45Z" style="fill:#ff9a6c"></path><path d="M208.58,79.39a10.23,10.23,0,0,1-1.16,1.41c-.86,1.06-1.79,2.18-2.8,3.41a10.72,10.72,0,0,1-1.8,1.72,5.21,5.21,0,0,1-1.89.79,5,5,0,0,1-1.85.16,9.46,9.46,0,0,1,1.76-.52,5.28,5.28,0,0,0,1.7-.82,12.6,12.6,0,0,0,1.69-1.67c1.1-1.3,2.11-2.52,2.92-3.32A4.76,4.76,0,0,1,208.58,79.39Z" style="fill:#ff9a6c"></path><path d="M335,225c.3-10.4,2.1-20.73,1.88-31.13s-2.79-21.27-9.92-28.85-23.39-13.27-30.14-1.89v6c2.68,40.15,1.56,80.9,4.24,121.05.35,5.28,4.55,10.11,6.87,14.87s7.06,8.71,12.34,8.48c6.91-.31,11.56-7.24,13.81-13.78C342.21,276,334.25,250,335,225Z" style="fill:#263238"></path><path d="M313.25,170.32a29.14,29.14,0,0,0-4-8c-1.85-2.33-4.63-4.13-7.61-4.08a4.11,4.11,0,0,0-3.6,1.79c-.68,1.22,0,3.13,1.4,3.26l.25.3c2.6,3.24,5.26,6.44,8,9.57a8.23,8.23,0,0,0,2.34,2.07,2.81,2.81,0,0,0,3-.12C314.35,174.07,313.87,171.94,313.25,170.32Z" style="fill:#455a64"></path><path d="M317.31,181.38c-8.06-14.24-20.54-23.79-36.63-26.83-9.07-1.72-13.16-.47-20,.17s-13.38,3.13-18.24,8c-5.78,5.79-10.95,12.5-13.21,20.36-2.32,8.08-4.65,16.21-5.45,24.58s0,17.07,3.72,24.61l20.39,7.27c11.54,2.39,23.24,4.79,35,4.09s23.79-4.89,31.55-13.76C325.2,217.56,325.38,195.63,317.31,181.38Z" style="fill:#263238"></path><path d="M298.64,178l-26.1-16-7.46-.41c-16.48-2.77-31,13.43-33.36,26.75-2.67,14.8-5.35,33-4.87,44.29,1,22.78,19.38,27.83,19.38,27.83s-2.4,11.64-3.81,19l11.85,28.06,31.57-23.78,18.91-97A7.91,7.91,0,0,0,298.64,178Z" style="fill:#ffbf9d"></path><path d="M260.67,233.23a4.74,4.74,0,0,0-1.12-3.16,4.85,4.85,0,0,0-5.74-1.33,6.5,6.5,0,0,0-3.46,5.59h0a5.86,5.86,0,0,0,3.75,3.13,6.57,6.57,0,0,0,.77.16,5.25,5.25,0,0,0,3.76-.79A4.71,4.71,0,0,0,260.67,233.23Z" style="fill:#ff9a6c"></path><path d="M239,207.3a2.88,2.88,0,0,0,2.43,3.21,2.75,2.75,0,0,0,3.25-2.24,2.89,2.89,0,0,0-2.42-3.22A2.77,2.77,0,0,0,239,207.3Z" style="fill:#263238"></path><path d="M235.46,196.68c.31.42,2.67-.94,5.76-.57s5.17,2.17,5.55,1.83c.18-.15-.11-.86-1-1.7a8,8,0,0,0-4.38-1.93,7.59,7.59,0,0,0-4.64.93C235.71,195.86,235.31,196.5,235.46,196.68Z" style="fill:#263238"></path><path d="M251,224c0-.17-1.84-.73-4.9-1.48-.78-.18-1.51-.42-1.58-1a4,4,0,0,1,.8-2.28l3-5.73c4.23-8.17,7.39-14.92,7.06-15.09s-4,6.32-8.25,14.49q-1.55,3-2.94,5.78a4.61,4.61,0,0,0-.77,3,2,2,0,0,0,1.17,1.3,5.14,5.14,0,0,0,1.31.35C249,224,251,224.22,251,224Z" style="fill:#263238"></path><path d="M246.2,260.5A57.22,57.22,0,0,0,277.07,256s-9.77,14.57-31.91,9.88Z" style="fill:#ff9a6c"></path><path d="M259.82,227.23c-.5-.09-.9,3.26-4,5.31s-6.67,1.26-6.75,1.73c-.07.2.72.74,2.23.95a8.36,8.36,0,0,0,5.61-1.25A7.35,7.35,0,0,0,260,229.5C260.33,228.11,260.05,227.24,259.82,227.23Z" style="fill:#263238"></path><path d="M238.35,186.16c.43.81,2.85.58,5.58,1.13s4.94,1.54,5.63.93c.31-.3.09-1.07-.78-1.93a8.79,8.79,0,0,0-9-1.67C238.63,185.12,238.16,185.76,238.35,186.16Z" style="fill:#263238"></path><path d="M273.42,211.88a2.88,2.88,0,0,1-3.19,2.46,2.78,2.78,0,0,1-2.55-3,2.9,2.9,0,0,1,3.2-2.46A2.77,2.77,0,0,1,273.42,211.88Z" style="fill:#263238"></path><path d="M277,202.62c-.41.32-2.33-1.61-5.4-2.08s-5.56.72-5.83.29c-.14-.19.33-.8,1.42-1.37a7.88,7.88,0,0,1,4.74-.69,7.57,7.57,0,0,1,4.22,2.12C277,201.76,277.24,202.48,277,202.62Z" style="fill:#263238"></path><path d="M276.89,192.51c-.71.6-3-.49-5.81-1s-5.34-.34-5.78-1.16c-.19-.39.3-1,1.45-1.53a9,9,0,0,1,4.91-.41,8.79,8.79,0,0,1,4.43,2.12C277,191.44,277.21,192.21,276.89,192.51Z" style="fill:#263238"></path><path d="M294.54,223.4c.2-1.67,2.58-5.37,4.25-5.44,4.47-.17,12.35,1.1,11.13,12.26-1.67,15.26-16.65,10.44-16.63,10S293.86,229.15,294.54,223.4Z" style="fill:#ffbf9d"></path><path d="M298.11,235.1c.08,0,.25.22.67.47a2.69,2.69,0,0,0,2,.26c1.67-.41,3.31-2.82,3.69-5.57a8.85,8.85,0,0,0-.33-3.88,3.07,3.07,0,0,0-1.78-2.26,1.37,1.37,0,0,0-1.65.55c-.25.41-.18.72-.27.74s-.3-.29-.1-.91a1.71,1.71,0,0,1,.7-.89,2.06,2.06,0,0,1,1.51-.23,3.78,3.78,0,0,1,2.52,2.67,9.2,9.2,0,0,1,.46,4.36c-.44,3.06-2.33,5.77-4.6,6.16a2.84,2.84,0,0,1-2.39-.67C298.1,235.48,298.06,235.13,298.11,235.1Z" style="fill:#ff9a6c"></path><path d="M299.4,218.11l-4.52,3.32c-13.84-18.71-39.38-64-38-61.3,0,0,12.15-2.72,24.11,1.5s34.26,14.4,31.4,28.87S299.4,218.11,299.4,218.11Z" style="fill:#263238"></path><path d="M321.91,218.55a3.68,3.68,0,0,0-.08-.91,14.64,14.64,0,0,0-.62-2.56,22.19,22.19,0,0,0-5.08-8.18,41.8,41.8,0,0,0-11.66-8.3c-4.77-2.52-10.24-4.77-15.41-8.13a74.52,74.52,0,0,1-13.48-10.93,78.56,78.56,0,0,1-8.95-11,80.9,80.9,0,0,1-4.84-8.28c-.48-.95-.86-1.73-1.16-2.34a3.9,3.9,0,0,0-.45-.8,4.54,4.54,0,0,0,.3.87c.23.55.55,1.38,1,2.41a70.38,70.38,0,0,0,4.66,8.44,74.45,74.45,0,0,0,8.89,11.22,72.92,72.92,0,0,0,13.58,11.08c5.24,3.4,10.76,5.65,15.5,8.11a42.55,42.55,0,0,1,11.58,8,23,23,0,0,1,5.21,7.91C321.7,217.3,321.83,218.57,321.91,218.55Z" style="fill:#455a64"></path><path d="M317.11,220.18a8,8,0,0,0,0-3.41,15.67,15.67,0,0,0-4.45-8.08c-2.75-2.9-7-5.13-11.75-7.11a75.77,75.77,0,0,1-14.8-7.66,67,67,0,0,1-12.47-11,69.29,69.29,0,0,1-8-11.05,76.4,76.4,0,0,1-4.07-8.25l-.91-2.34a4.38,4.38,0,0,0-.37-.8,3.37,3.37,0,0,0,.22.85c.2.63.46,1.42.78,2.4a62.38,62.38,0,0,0,3.87,8.41,65.9,65.9,0,0,0,20.47,22.45,74.08,74.08,0,0,0,15,7.68c4.75,1.94,8.92,4.07,11.64,6.83a15.81,15.81,0,0,1,4.54,7.75A17.51,17.51,0,0,1,317.11,220.18Z" style="fill:#455a64"></path><path d="M294.5,243.59c0-.1,1.33-.05,3.67-.25a22,22,0,0,0,9.26-3.27,30.64,30.64,0,0,0,9.91-10.66,53.56,53.56,0,0,0,6.28-16.85,41.75,41.75,0,0,0-.25-17.9,44.56,44.56,0,0,0-5.73-13.53c-4.56-7.11-8.82-10.39-8.61-10.57a3.36,3.36,0,0,1,.76.57c.46.42,1.19,1,2,1.84a47.18,47.18,0,0,1,6.42,7.78,43.52,43.52,0,0,1,6,13.69,44.81,44.81,0,0,1,1.18,8.81,45.59,45.59,0,0,1-.84,9.5,53,53,0,0,1-6.47,17.14,30.84,30.84,0,0,1-10.34,10.79,21.17,21.17,0,0,1-9.6,3,19.55,19.55,0,0,1-2.75,0A3.3,3.3,0,0,1,294.5,243.59Z" style="fill:#455a64"></path><path d="M312.8,355.38c.85,1.05,10.5,31.93,10.5,31.93L269,396.37l1.65,25.8,80-1.12s16.85-7,12.93-26.39c-3.38-16.72-21.59-74.26-23-79.78s-13.55-25.21-26.74-29.41L300.45,327Z" style="fill:#90CAF9"></path><path d="M163.35,417s23.18-28.05,25.73-39.07-3.22-80.62-3.22-80.62l41.2-36.78,16.3,12.84s5,20.92,16.8,22.12,26.38-15.21,26.38-15.21,19.77.1,32.81,7.6l-2.08,43.06c-2.74,18.88-5.49,37-9.19,44.8l-.3,2.19L288,416.52Z" style="fill:#90CAF9"></path><path d="M185.85,298.15s.15-14.32.15-15.59-9.23-47.4-11.46-65.53S173,153.09,173,153.09l32.45-6,8.93,68.68,8,23.94,5.43,24-4.25,7.42Z" style="fill:#90CAF9"></path><path d="M190.46,237.72a1.39,1.39,0,0,1,.08.47c0,.36.09.8.14,1.33.1,1.25.24,2.91.41,4.93a138.94,138.94,0,0,1,.46,16.31,73.79,73.79,0,0,1-2.65,16.1c-.59,2-1.08,3.62-1.48,4.72l-.46,1.27a1.46,1.46,0,0,1-.19.43,2.48,2.48,0,0,1,.09-.47l.36-1.29c.34-1.12.79-2.74,1.32-4.76a80.15,80.15,0,0,0,2.48-16c.29-6.34-.1-12.09-.3-16.26-.1-2-.18-3.68-.24-4.93,0-.53,0-1,0-1.35A1.35,1.35,0,0,1,190.46,237.72Z" style="fill:#263238"></path><path d="M317.27,328.31a3.18,3.18,0,0,1-.06.62l-.27,1.74c-.21,1.59-.51,3.77-.87,6.44-.74,5.43-1.74,13-3.35,21.18a119.58,119.58,0,0,1-5.63,20.7c-.26.64-.47,1.26-.73,1.82l-.74,1.59-.65,1.38c-.2.42-.44.78-.63,1.11l-.91,1.52a2.38,2.38,0,0,1-.35.51,3.91,3.91,0,0,1,.26-.56l.82-1.57c.17-.34.4-.7.59-1.12s.39-.9.61-1.39l.7-1.6c.24-.56.44-1.18.69-1.82a131.39,131.39,0,0,0,5.46-20.67c1.6-8.2,2.66-15.71,3.49-21.13.41-2.72.77-4.91,1-6.42.14-.76.28-1.34.36-1.73A2.39,2.39,0,0,1,317.27,328.31Z" style="fill:#263238"></path><path d="M339.52,402a22,22,0,0,1-2.08-2.52,63.75,63.75,0,0,0-5.07-6c-4.33-4.36-9.19-6-9.07-6.22s.31.06.84.25a23.8,23.8,0,0,1,2.2,1,25.54,25.54,0,0,1,6.4,4.63,47.37,47.37,0,0,1,5,6.11A20.4,20.4,0,0,1,339.52,402Z" style="fill:#263238"></path><path d="M270.69,422.17a2,2,0,0,1-.08-.49c0-.36-.07-.83-.13-1.42-.09-1.28-.23-3.08-.4-5.32-.32-4.61-.77-11-1.28-18.56l0-.22.22,0,14.38-2.42,28.21-4.64,8.56-1.34,2.33-.34a4.6,4.6,0,0,1,.82-.08,6,6,0,0,1-.8.18l-2.32.44-8.53,1.51-28.19,4.78-14.38,2.38.2-.25c.44,7.53.82,14,1.09,18.57.12,2.25.21,4,.27,5.33,0,.59,0,1.06.05,1.42A3.21,3.21,0,0,1,270.69,422.17Z" style="fill:#263238"></path><path d="M260.48,361.8s-.13.15-.42.39l-1.28,1.05-.94.74c-.35.26-.75.51-1.17.8a33.34,33.34,0,0,1-2.94,1.84l-1.76,1c-.61.34-1.29.61-2,.94-1.36.68-2.88,1.2-4.47,1.8a49.9,49.9,0,0,1-21.82,2.39c-1.68-.24-3.29-.43-4.76-.79-.73-.18-1.45-.3-2.13-.49l-1.93-.58a31.73,31.73,0,0,1-3.26-1.16c-.48-.19-.92-.35-1.32-.53l-1.08-.52-1.47-.74a2.92,2.92,0,0,1-.5-.29,2.17,2.17,0,0,1,.55.19l1.51.65,1.08.48c.41.17.86.31,1.33.49,1,.33,2,.77,3.27,1.08l1.92.54c.67.18,1.39.29,2.12.45a47.26,47.26,0,0,0,4.72.74,55.55,55.55,0,0,0,10.94,0,56.25,56.25,0,0,0,10.67-2.34c1.58-.58,3.1-1.09,4.45-1.75.68-.31,1.36-.58,2-.9l1.76-.94c1.15-.57,2.09-1.23,3-1.76.42-.28.83-.52,1.19-.76l1-.71,1.33-1A3.39,3.39,0,0,1,260.48,361.8Z" style="fill:#263238"></path><path d="M186.6,420.88a2,2,0,0,1,1.1-2.76c6.26-2.19,28.6-10,30.08-10.53,1.71-.57,36-7.21,36-7.21l15.49-.86,1.32,20.77H255.88a38.28,38.28,0,0,1-5.83,1.26c-2.19.21-35.09,1.93-43.82,1.56a3.17,3.17,0,0,1-2.64-1.67h0s-5.49,2.18-8.93,1.72-3.43-1.15-3.43-1.15S187.91,423.32,186.6,420.88Z" style="fill:#ffbf9d"></path><path d="M229.61,414a3.62,3.62,0,0,1-1,.51,18.81,18.81,0,0,1-2.86.91c-1.22.3-2.7.56-4.29,1-.8.2-1.6.51-2.49.77s-1.79.49-2.73.69c-1.89.41-3.67.73-5.32,1s-3.16.3-4.37.56a4.57,4.57,0,0,0-2.58,1.14,1.18,1.18,0,0,0-.17,1s-.09-.07-.15-.26a1.14,1.14,0,0,1,.15-.83,4.39,4.39,0,0,1,2.67-1.4c1.24-.32,2.75-.41,4.37-.68s3.43-.67,5.29-1.07c.93-.2,1.84-.42,2.7-.67s1.69-.55,2.51-.74c1.63-.41,3.11-.63,4.33-.88A40,40,0,0,0,229.61,414Z" style="fill:#ff9a6c"></path><path d="M222.73,409.74a8.39,8.39,0,0,1-1.32.46l-3.66,1.07c-3.08.9-7.35,2.14-12,3.57s-8.93,2.76-12,3.73a5.32,5.32,0,0,0-1.88.91,1.91,1.91,0,0,0-.7,1.33,1.54,1.54,0,0,0,.43,1.22s-.13,0-.3-.22a1.39,1.39,0,0,1-.33-1,2.11,2.11,0,0,1,.7-1.54,5.62,5.62,0,0,1,2-1c3-1.06,7.27-2.45,12-3.88s9-2.61,12.1-3.42c1.55-.41,2.82-.72,3.7-.92A6.65,6.65,0,0,1,222.73,409.74Z" style="fill:#ff9a6c"></path></g></svg>